<?xml version="1.0" encoding="utf-8"?>
<!-- Generator: Adobe Illustrator 23.0.1, SVG Export Plug-In . SVG Version: 6.00 Build 0)  -->
<svg version="1.1" id="圖層_1" xmlns="http://www.w3.org/2000/svg" xmlns:xlink="http://www.w3.org/1999/xlink" x="0px" y="0px"
	 viewBox="0 0 70.87 42.52" style="enable-background:new 0 0 70.87 42.52;" xml:space="preserve">
<style type="text/css">
	.st0{fill:#FFFFFF;}
</style>
<path class="st0" d="M8.63,21.41l0.05,0.97c0.04,0.84-0.37,1.29-1.2,1.33l-4.06,0.21c-0.84,0.04-1.29-0.37-1.33-1.2L1.27,6.62
	c-0.04-0.84,0.37-1.29,1.2-1.33l5.1-0.26c6.27-0.32,8.85,4.49,9.02,7.74C16.88,18.4,11.9,21.1,8.63,21.41 M7.87,10.94l0.26,5.23
	c1.14-0.06,2.46-1.09,2.39-2.51C10.43,11.58,9.07,10.88,7.87,10.94"/>
<path class="st0" d="M22.87,21.97h-3.46c-0.76,0-1.15-0.39-1.15-1.15V6.2c0-0.76,0.39-1.15,1.15-1.15h3.46
	c0.76,0,1.15,0.39,1.15,1.15v14.62C24.02,21.58,23.63,21.97,22.87,21.97"/>
<path class="st0" d="M36.58,9.43h-2.07v11.39c0,0.76-0.39,1.15-1.15,1.15H29.9c-0.76,0-1.15-0.39-1.15-1.15V9.43h-2.07
	c-0.76,0-1.15-0.39-1.15-1.15V6.2c0-0.76,0.39-1.15,1.15-1.15h9.91c0.76,0,1.15,0.39,1.15,1.15v2.07
	C37.74,9.03,37.35,9.43,36.58,9.43"/>
<path class="st0" d="M51.64,7.21l-1.45,2.81c-0.23,0.44-0.51,0.67-0.88,0.67c-0.6,0-0.99-0.55-2.17-0.55
	c-1.68,0-3.07,1.52-3.07,3.37c0,1.84,1.38,3.37,3.07,3.37c1.5,0,1.75-0.55,2.47-0.55c0.41,0,0.71,0.3,0.9,0.83l0.95,2.81
	c0.07,0.23,0.14,0.44,0.14,0.62c0,0.39-0.23,0.72-0.69,0.92c-1.13,0.53-2.44,0.83-3.76,0.83c-5.63,0-8.83-3.99-8.83-8.83
	c0-4.84,3.99-8.83,8.83-8.83c1.43,0,2.84,0.35,4.03,0.99c0.41,0.23,0.64,0.53,0.64,0.88C51.82,6.75,51.76,6.96,51.64,7.21"/>
<path class="st0" d="M66.45,22.94l-3.43-0.44c-0.76-0.1-1.09-0.53-1-1.29l0.8-6.34l-3.45-0.44l-0.8,6.34c-0.1,0.76-0.53,1.09-1.29,1
	l-3.43-0.44c-0.76-0.1-1.09-0.53-1-1.29l1.84-14.5c0.1-0.76,0.53-1.09,1.29-1l3.43,0.44c0.76,0.1,1.09,0.53,1,1.29l-0.6,4.76
	l3.45,0.44l0.61-4.76c0.09-0.76,0.53-1.09,1.29-1l3.43,0.44c0.76,0.1,1.09,0.53,1,1.29l-1.84,14.5
	C67.65,22.69,67.21,23.03,66.45,22.94"/>
<path class="st0" d="M22.07,28.17h-1.95v10.71c0,0.71-0.37,1.08-1.08,1.08h-3.25c-0.72,0-1.08-0.37-1.08-1.08V28.17h-1.95
	c-0.71,0-1.08-0.37-1.08-1.08v-1.95c0-0.71,0.37-1.08,1.08-1.08h9.32c0.71,0,1.08,0.37,1.08,1.08v1.95
	C23.15,27.81,22.78,28.17,22.07,28.17"/>
<path class="st0" d="M34.14,38.71H25.9c-0.66,0-0.99-0.34-0.99-0.99V25.12c0-0.66,0.34-0.99,0.99-0.99h8.24
	c0.66,0,0.99,0.34,0.99,0.99v1.79c0,0.66-0.34,0.99-0.99,0.99h-4.27v1.35h4.27c0.66,0,0.99,0.34,0.99,0.99v0.97
	c0,0.66-0.34,0.99-0.99,0.99h-4.27v2.72h4.27c0.66,0,0.99,0.34,0.99,0.99v1.79C35.13,38.37,34.8,38.71,34.14,38.71"/>
<path class="st0" d="M39.86,40.17c-0.89,0-1.77-0.18-2.52-0.58c-0.36-0.18-0.56-0.48-0.56-0.84c0-0.12,0.06-0.42,0.12-0.62
	l0.32-1.27c0.12-0.52,0.4-0.79,0.81-0.79c0.26,0,0.7,0.16,1.11,0.16c0.46,0,0.64-0.32,0.64-0.66c0-0.22-0.06-0.44-0.22-0.58
	c-1.35-1.21-2.46-3.02-2.46-4.75c0-3.46,2.24-5.3,5.38-5.3c0.83,0,1.51,0.1,2.05,0.3c0.44,0.16,0.67,0.46,0.67,0.87
	c0,0.12-0.04,0.38-0.08,0.6l-0.2,1.21c-0.1,0.56-0.38,0.85-0.81,0.85c-0.24,0-0.6-0.14-0.91-0.14c-0.44,0-0.66,0.34-0.66,0.66
	c0,0.2,0.06,0.38,0.2,0.52c1.31,1.43,2.7,2.7,2.7,5.03C45.44,37.94,43,40.17,39.86,40.17"/>
<path class="st0" d="M56.98,28.17h-1.95v10.71c0,0.71-0.37,1.08-1.08,1.08h-3.25c-0.72,0-1.08-0.37-1.08-1.08V28.17h-1.95
	c-0.72,0-1.08-0.37-1.08-1.08v-1.95c0-0.71,0.37-1.08,1.08-1.08h9.32c0.72,0,1.08,0.37,1.08,1.08v1.95
	C58.06,27.81,57.69,28.17,56.98,28.17"/>
</svg>
